<svg width="282" height="129" viewBox="0 0 282 129" fill="none" xmlns="http://www.w3.org/2000/svg">
<path d="M132.326 4.18211L132.206 3.6966L132.326 4.18211ZM216.024 103.746L215.548 103.594L216.024 103.746ZM165.151 78.6701L164.884 78.2477L165.151 78.6701ZM278.64 120.947C278.448 121.145 278.131 121.15 277.933 120.957L274.706 117.821C274.508 117.629 274.504 117.312 274.696 117.114C274.888 116.916 275.205 116.911 275.403 117.104L278.272 119.892L281.059 117.023C281.252 116.825 281.568 116.821 281.766 117.013C281.964 117.206 281.969 117.522 281.776 117.72L278.64 120.947ZM1 56C0.798662 55.5423 0.798666 55.5423 0.798675 55.5423C0.798682 55.5423 0.798694 55.5423 0.798709 55.5423C0.798739 55.5423 0.798784 55.5423 0.798843 55.5422C0.798961 55.5422 0.799136 55.5421 0.799369 55.542C0.799835 55.5418 0.80053 55.5415 0.801454 55.5411C0.803303 55.5403 0.806068 55.5391 0.809745 55.5375C0.817098 55.5342 0.828097 55.5294 0.842705 55.523C0.871921 55.5101 0.91557 55.4909 0.973351 55.4656C1.08891 55.4148 1.261 55.3393 1.4872 55.2401C1.9396 55.0418 2.60843 54.7489 3.47436 54.3706L3.87463 55.287C3.00914 55.6651 2.34073 55.9578 1.88873 56.1559C1.66273 56.255 1.49084 56.3305 1.37547 56.3812C1.31778 56.4065 1.27423 56.4256 1.2451 56.4384C1.23054 56.4448 1.21959 56.4496 1.21228 56.4529C1.20863 56.4545 1.20589 56.4557 1.20406 56.4565C1.20315 56.4569 1.20247 56.4572 1.20201 56.4574C1.20178 56.4575 1.20161 56.4575 1.2015 56.4576C1.20145 56.4576 1.2014 56.4576 1.20138 56.4577C1.20136 56.4577 1.20135 56.4577 1.20135 56.4577C1.20134 56.4577 1.20134 56.4577 1 56ZM8.84173 52.0342C10.4476 51.3373 12.2643 50.5507 14.2645 49.6873L14.6608 50.6054C12.6613 51.4685 10.8451 52.2549 9.23983 52.9516L8.84173 52.0342ZM19.6699 47.36C21.3971 46.6182 23.2157 45.839 25.1139 45.0278L25.5069 45.9474C23.6093 46.7583 21.7912 47.5373 20.0645 48.2789L19.6699 47.36ZM30.5116 42.727C32.2683 41.9801 34.0764 41.2132 35.9282 40.43L36.3178 41.351C34.4665 42.134 32.659 42.9006 30.9029 43.6473L30.5116 42.727ZM41.3545 38.1411C43.1362 37.3916 44.9491 36.6311 46.7871 35.8624L47.1729 36.785C45.3356 37.5534 43.5234 38.3136 41.7423 39.0628L41.3545 38.1411ZM52.2249 33.5953C54.0233 32.8478 55.8394 32.0954 57.6679 31.3405L58.0495 32.2649C56.2217 33.0194 54.4064 33.7715 52.6087 34.5187L52.2249 33.5953ZM63.1166 29.0993C64.9295 28.3563 66.7495 27.6134 68.5715 26.8727L68.9481 27.7991C67.127 28.5394 65.3079 29.282 63.4958 30.0246L63.1166 29.0993ZM74.0331 24.6625C75.8606 23.9263 77.6853 23.1948 79.5022 22.4703L79.8725 23.3992C78.0568 24.1232 76.2332 24.8543 74.4068 25.59L74.0331 24.6625ZM84.9796 20.2987C86.8241 19.5718 88.6549 18.8549 90.4669 18.1505L90.8292 19.0826C89.0188 19.7864 87.1894 20.5027 85.3463 21.2291L84.9796 20.2987ZM95.9653 16.0296C97.8317 15.3157 99.6709 14.6186 101.476 13.9415L101.828 14.8778C100.024 15.5541 98.1871 16.2504 96.3226 16.9636L95.9653 16.0296ZM107.001 11.8939C108.897 11.2002 110.745 10.5341 112.536 9.89969L112.87 10.8423C111.083 11.4755 109.238 12.1404 107.345 12.8331L107.001 11.8939ZM118.1 7.97066C120.075 7.30205 121.957 6.68426 123.733 6.12407L124.034 7.07773C122.266 7.63552 120.39 8.25111 118.42 8.91787L118.1 7.97066ZM129.36 4.44492C130.364 4.16632 131.314 3.91619 132.206 3.6966L132.445 4.66763C131.564 4.88451 130.623 5.13208 129.628 5.40848L129.36 4.44492ZM132.206 3.6966C133.244 3.44122 134.271 3.20325 135.286 2.98235L135.499 3.95949C134.492 4.17844 133.474 4.41438 132.445 4.66763L132.206 3.6966ZM141.344 1.84324C143.434 1.51396 145.473 1.26076 147.462 1.08035L147.552 2.07626C145.586 2.25462 143.569 2.50507 141.5 2.83106L141.344 1.84324ZM153.649 0.747542C155.78 0.714612 157.848 0.770347 159.855 0.909936L159.786 1.90753C157.808 1.76996 155.768 1.71492 153.664 1.74742L153.649 0.747542ZM166.018 1.62813C168.112 1.97532 170.132 2.4203 172.08 2.95636L171.815 3.92052C169.901 3.39385 167.915 2.95627 165.854 2.61466L166.018 1.62813ZM177.981 4.9388C179.941 5.72326 181.817 6.60726 183.612 7.58191L183.135 8.46074C181.374 7.50456 179.533 6.63713 177.61 5.86719L177.981 4.9388ZM188.891 10.8625C190.597 12.0658 192.216 13.3578 193.753 14.7282L193.088 15.4746C191.578 14.1287 189.988 12.8604 188.315 11.6796L188.891 10.8625ZM198.158 19.1059C199.548 20.642 200.857 22.2476 202.088 23.9122L201.284 24.5069C200.072 22.8676 198.783 21.2875 197.416 19.7769L198.158 19.1059ZM205.547 29.0631C206.622 30.8265 207.623 32.6379 208.554 34.4869L207.661 34.9366C206.741 33.1105 205.753 31.3227 204.693 29.5834L205.547 29.0631ZM211.134 40.1225C211.927 42.0314 212.653 43.9676 213.316 45.9207L212.369 46.2423C211.713 44.309 210.994 42.3936 210.211 40.506L211.134 40.1225ZM215.127 51.8444C215.674 53.8464 216.16 55.8555 216.588 57.8609L215.61 58.0698C215.186 56.082 214.704 54.0912 214.162 52.108L215.127 51.8444ZM217.717 63.9416C218.045 66.0073 218.314 68.0577 218.528 70.0808L217.533 70.1861C217.321 68.1797 217.054 66.1464 216.73 64.0981L217.717 63.9416ZM219.021 76.2571C219.135 78.3655 219.189 80.4281 219.19 82.4299L218.19 82.43C218.189 80.4462 218.135 78.4015 218.023 76.3109L219.021 76.2571ZM219.01 88.6395C218.881 90.8001 218.685 92.8573 218.43 94.7874L217.439 94.6565C217.691 92.7518 217.884 90.7185 218.011 88.5801L219.01 88.6395ZM217.327 100.904C217.074 101.971 216.797 102.972 216.5 103.899L215.548 103.594C215.836 102.694 216.106 101.718 216.354 100.673L217.327 100.904ZM216.5 103.899C216.174 104.917 215.835 105.899 215.484 106.846L214.546 106.498C214.892 105.566 215.226 104.598 215.548 103.594L216.5 103.899ZM213.086 112.43C212.127 114.359 211.106 116.099 210.032 117.66L209.208 117.093C210.253 115.574 211.251 113.876 212.191 111.985L213.086 112.43ZM206.078 122.397C204.519 123.917 202.886 125.148 201.2 126.113L200.703 125.245C202.312 124.324 203.877 123.146 205.379 121.681L206.078 122.397ZM195.467 128.367C193.439 128.834 191.379 128.986 189.321 128.866L189.38 127.867C191.349 127.982 193.313 127.836 195.243 127.392L195.467 128.367ZM183.272 127.755C181.348 127.168 179.454 126.37 177.617 125.399L178.084 124.515C179.87 125.459 181.706 126.231 183.564 126.799L183.272 127.755ZM172.459 122.113C170.839 120.896 169.292 119.551 167.842 118.107L168.548 117.399C169.966 118.811 171.477 120.125 173.059 121.313L172.459 122.113ZM163.814 113.514C162.563 111.878 161.435 110.168 160.454 108.415L161.327 107.926C162.284 109.636 163.386 111.307 164.609 112.907L163.814 113.514ZM157.904 102.846C157.194 100.862 156.691 98.8619 156.43 96.885L157.422 96.7542C157.672 98.6532 158.156 100.585 158.845 102.509L157.904 102.846ZM156.458 90.7218C156.775 88.6695 157.425 86.6978 158.451 84.8628L159.324 85.3508C158.36 87.0747 157.747 88.9317 157.446 90.8748L156.458 90.7218ZM162.386 80.0909C163.143 79.4392 163.975 78.8236 164.884 78.2477L165.419 79.0925C164.549 79.6434 163.757 80.2302 163.039 80.8487L162.386 80.0909ZM164.884 78.2477C165.789 77.674 166.688 77.1122 167.579 76.5624L168.104 77.4135C167.216 77.9612 166.321 78.5208 165.419 79.0925L164.884 78.2477ZM172.842 73.4047C174.664 72.3429 176.454 71.3326 178.214 70.3724L178.693 71.2502C176.942 72.2058 175.159 73.2114 173.345 74.2686L172.842 73.4047ZM183.603 67.539C185.509 66.5756 187.377 65.6734 189.207 64.8303L189.625 65.7385C187.806 66.5764 185.949 67.4733 184.054 68.4315L183.603 67.539ZM194.793 62.3915C196.756 61.5831 198.673 60.8461 200.546 60.1774L200.882 61.1192C199.025 61.7823 197.123 62.5136 195.174 63.3161L194.793 62.3915ZM206.44 58.2523C208.482 57.6497 210.467 57.1333 212.397 56.6986L212.616 57.6741C210.709 58.1038 208.745 58.6147 206.723 59.2114L206.44 58.2523ZM218.44 55.5731C220.556 55.2652 222.598 55.0623 224.571 54.9576L224.624 55.9562C222.683 56.0592 220.671 56.259 218.584 56.5627L218.44 55.5731ZM230.756 54.9552C232.902 55.0737 234.954 55.3179 236.916 55.6767L236.736 56.6603C234.817 56.3094 232.807 56.0699 230.701 55.9537L230.756 54.9552ZM242.928 57.2143C244.944 57.8873 246.847 58.6922 248.645 59.6118L248.189 60.5021C246.436 59.6052 244.579 58.8198 242.611 58.1629L242.928 57.2143ZM253.928 62.8441C255.627 64.0691 257.21 65.405 258.685 66.8301L257.99 67.5492C256.548 66.1557 255.002 64.8508 253.343 63.6553L253.928 62.8441ZM262.848 71.4221C264.141 73.0439 265.329 74.7361 266.42 76.4752L265.572 77.0066C264.5 75.2968 263.334 73.6356 262.066 72.0455L262.848 71.4221ZM269.443 81.8757C270.374 83.7388 271.211 85.6274 271.965 87.5163L271.036 87.887C270.292 86.0217 269.466 84.1586 268.549 82.3224L269.443 81.8757ZM274.041 93.3322C274.682 95.3535 275.237 97.3453 275.717 99.2759L274.747 99.5171C274.271 97.6053 273.722 95.6341 273.087 93.6348L274.041 93.3322ZM277.03 105.312C277.444 107.512 277.76 109.563 278.001 111.402L277.01 111.533C276.77 109.709 276.457 107.677 276.048 105.496L277.03 105.312ZM278.628 117.533C278.696 118.501 278.735 119.263 278.756 119.785C278.767 120.046 278.773 120.246 278.777 120.382C278.779 120.45 278.78 120.502 278.781 120.537C278.781 120.555 278.781 120.568 278.781 120.577C278.781 120.582 278.781 120.585 278.781 120.588C278.782 120.589 278.782 120.59 278.782 120.59C278.782 120.591 278.782 120.591 278.782 120.591C278.782 120.591 278.782 120.591 278.782 120.591C278.782 120.591 278.782 120.592 278.782 120.592C278.782 120.592 278.782 120.592 278.282 120.599C277.782 120.606 277.782 120.606 277.782 120.606L277.782 120.606C277.782 120.606 277.782 120.606 277.782 120.606C277.782 120.606 277.782 120.606 277.782 120.605C277.782 120.605 277.782 120.604 277.782 120.603C277.782 120.602 277.782 120.599 277.781 120.595C277.781 120.586 277.781 120.574 277.781 120.558C277.78 120.525 277.779 120.475 277.777 120.409C277.774 120.278 277.767 120.082 277.757 119.826C277.736 119.313 277.698 118.561 277.63 117.604L278.628 117.533Z" fill="#161616"/>
</svg>
