<svg width="166" height="108" viewBox="0 0 166 108" fill="none" xmlns="http://www.w3.org/2000/svg">
<path d="M10.4999 62.1885L10.8453 62.5501L10.4999 62.1885ZM13.8345 107.485C14.1088 107.453 14.3057 107.205 14.2742 106.931L13.7617 102.459C13.7302 102.185 13.4824 101.988 13.2081 102.019C12.9338 102.051 12.737 102.299 12.7684 102.573L13.224 106.548L9.25096 107.004C8.97668 107.035 8.77982 107.283 8.81127 107.558C8.84272 107.832 9.09057 108.029 9.36485 107.997L13.8345 107.485ZM165 1C164.857 0.520708 164.857 0.520709 164.857 0.520712C164.857 0.520715 164.857 0.520719 164.857 0.520724C164.857 0.520733 164.857 0.520748 164.857 0.520766C164.857 0.520804 164.857 0.520859 164.856 0.520932C164.856 0.521078 164.855 0.521296 164.854 0.521585C164.852 0.522163 164.849 0.523026 164.846 0.524172C164.838 0.526466 164.826 0.529894 164.811 0.534449C164.781 0.54356 164.735 0.557176 164.675 0.575227C164.554 0.611329 164.375 0.66517 164.139 0.736181C163.666 0.878203 162.968 1.08891 162.062 1.36373L162.352 2.32089C163.257 2.04632 163.955 1.83587 164.426 1.69408C164.662 1.62319 164.841 1.56947 164.962 1.53348C165.022 1.51548 165.067 1.50192 165.097 1.49287C165.112 1.48834 165.124 1.48494 165.131 1.48268C165.135 1.48154 165.138 1.48069 165.14 1.48013C165.141 1.47985 165.142 1.47964 165.142 1.4795C165.142 1.47943 165.142 1.47937 165.143 1.47934C165.143 1.47932 165.143 1.47931 165.143 1.4793C165.143 1.4793 165.143 1.4793 165.143 1.47929C165.143 1.47929 165.143 1.47929 165 1ZM156.319 3.12163C154.646 3.63785 152.755 4.22411 150.674 4.87419L150.972 5.82896C153.052 5.17926 154.941 4.59336 156.614 4.07747L156.319 3.12163ZM144.966 6.66803C143.156 7.23993 141.25 7.84549 139.259 8.482L139.564 9.43477C141.554 8.7986 143.459 8.19338 145.267 7.6218L144.966 6.66803ZM133.578 10.3085C131.742 10.9022 129.85 11.517 127.911 12.151L128.221 13.1018C130.159 12.4681 132.05 11.8536 133.886 11.2602L133.578 10.3085ZM122.253 14.0115C120.403 14.6234 118.519 15.2501 116.606 15.8902L116.923 16.8388C118.835 16.199 120.718 15.5727 122.567 14.9611L122.253 14.0115ZM110.963 17.7905C109.102 18.4211 107.22 19.0626 105.322 19.7139L105.647 20.66C107.543 20.0091 109.423 19.368 111.283 18.7379L110.963 17.7905ZM99.6854 21.6616C97.8179 22.3114 95.9396 22.9694 94.0551 23.6347L94.3878 24.5779C96.2708 23.9132 98.1476 23.2557 100.014 22.6064L99.6854 21.6616ZM88.4345 25.6338C86.5662 26.3036 84.696 26.9794 82.8279 27.6602L83.1702 28.6C85.0365 27.9198 86.9051 27.2446 88.7718 26.5755L88.4345 25.6338ZM77.2315 29.7182C75.3611 30.4122 73.4972 31.1104 71.6441 31.8117L71.9979 32.7473C73.8489 32.0467 75.7107 31.3493 77.5792 30.656L77.2315 29.7182ZM66.0708 33.9436C64.2019 34.6663 62.3488 35.3913 60.516 36.1174L60.8841 37.0474C62.7143 36.3223 64.5648 35.5984 66.4313 34.8765L66.0708 33.9436ZM54.984 38.3385C53.1198 39.0973 51.2828 39.8563 49.4781 40.6141L49.865 41.5364C51.6662 40.7801 53.4998 40.0225 55.3608 39.265L54.984 38.3385ZM44.0011 42.9545C42.1386 43.7652 40.3195 44.5732 38.5503 45.3769L38.9637 46.2877C40.7277 45.4863 42.542 44.6805 44.4 43.8717L44.0011 42.9545ZM33.1416 47.8968C31.2799 48.7878 29.4894 49.6716 27.7793 50.546L28.2343 51.4367C29.9358 50.5666 31.7184 49.6867 33.573 48.7991L33.1416 47.8968ZM22.4814 53.3717C20.6207 54.4114 18.8935 55.4344 17.3169 56.4368L17.8532 57.281C19.4111 56.2905 21.1217 55.2771 22.9689 54.2449L22.4814 53.3717ZM12.4309 59.8629C11.5884 60.5285 10.8273 61.1836 10.1545 61.827L10.8453 62.5501C11.4915 61.9321 12.2281 61.2976 13.0505 60.6479L12.4309 59.8629ZM10.1545 61.827C9.3323 62.6132 8.56872 63.3985 7.86081 64.1823L8.60264 64.8529C9.29349 64.088 10.04 63.3201 10.8453 62.5501L10.1545 61.827ZM3.89568 69.4395C2.65907 71.464 1.76042 73.4648 1.14679 75.4272L2.10095 75.7259C2.6891 73.845 3.55299 71.9188 4.74877 69.9611L3.89568 69.4395ZM0.0815392 81.9477C0.0396402 84.2351 0.33953 86.429 0.873726 88.5012L1.84182 88.2515C1.3277 86.2572 1.04107 84.1536 1.08114 81.9661L0.0815392 81.9477ZM3.23659 94.652C4.292 96.7188 5.51116 98.5868 6.73017 100.214L7.53019 99.6143C6.33887 98.0239 5.15191 96.2043 4.1269 94.197L3.23659 94.652ZM11.032 105.158C11.7496 105.871 12.3555 106.424 12.7832 106.8C12.9971 106.988 13.1665 107.132 13.2832 107.229C13.3415 107.278 13.3867 107.315 13.4176 107.34C13.4331 107.353 13.445 107.362 13.4532 107.369C13.4573 107.372 13.4605 107.375 13.4627 107.376C13.4639 107.377 13.4648 107.378 13.4654 107.379C13.4657 107.379 13.466 107.379 13.4662 107.379C13.4663 107.379 13.4664 107.379 13.4665 107.379C13.4665 107.38 13.4666 107.38 13.4666 107.38C13.4666 107.38 13.4667 107.38 13.7776 106.988C14.0885 106.596 14.0885 106.596 14.0885 106.596C14.0886 106.596 14.0886 106.596 14.0886 106.596C14.0886 106.596 14.0886 106.596 14.0886 106.596C14.0886 106.596 14.0885 106.596 14.0883 106.596C14.088 106.596 14.0875 106.596 14.0867 106.595C14.0852 106.594 14.0828 106.592 14.0794 106.589C14.0727 106.584 14.0623 106.575 14.0483 106.564C14.0204 106.541 13.9784 106.507 13.9232 106.461C13.8128 106.369 13.65 106.231 13.443 106.049C13.0289 105.685 12.4382 105.146 11.7367 104.448L11.032 105.158Z" fill="#161616"/>
</svg>
